<?xml version="1.0" encoding="UTF-8" standalone="no"?><!DOCTYPE svg PUBLIC "-//W3C//DTD SVG 1.1//EN" "http://www.w3.org/Graphics/SVG/1.1/DTD/svg11.dtd"><svg width="100%" height="100%" viewBox="0 0 600 300" version="1.1" xmlns="http://www.w3.org/2000/svg" xmlns:xlink="http://www.w3.org/1999/xlink" xml:space="preserve" xmlns:serif="http://www.serif.com/" style="fill-rule:evenodd;clip-rule:evenodd;stroke-linejoin:round;stroke-miterlimit:2;"><rect id="hook" x="0" y="0" width="600" height="300" style="fill:none;"/><clipPath id="_clip1"><rect id="hook1" serif:id="hook" x="0" y="0" width="600" height="300"/></clipPath><g clip-path="url(#_clip1)"><g><path d="M300,0l0,300l-270,0c-16.557,0 -30,-13.443 -30,-30l0,-240c0,-16.557 13.443,-30 30,-30l270,0Z" style="fill:#211084;"/><path d="M151.462,208.8c-31.533,0 -53.673,-20.127 -53.673,-70.445l0,-138.355l45.622,-0l-0,139.025c0,19.456 5.367,31.533 22.14,31.533c18.785,0 31.533,-17.444 34.887,-59.711c0.671,-6.038 4.025,-9.393 8.722,-9.393c4.696,0 8.051,3.355 8.051,10.064c-2.684,69.104 -32.204,97.282 -65.749,97.282Z" style="fill:#ace3fe;"/></g><g><path d="M600,30l0,240c0,16.557 -13.443,30 -30,30l-270,-0l0,-300l270,0c16.557,0 30,13.443 30,30Z" style="fill:#112c14;"/><path d="M449.785,208.8c25.495,0 48.976,-16.773 67.762,-44.951l-10.064,-8.722c-6.709,8.051 -22.811,22.811 -38.913,22.811c-23.482,0 -25.495,-22.14 -25.495,-45.622l0,-132.316l-45.622,0l0,146.405c0,38.913 21.469,62.395 52.331,62.395Z" style="fill:#a6dfae;fill-rule:nonzero;"/></g><path d="M302.25,164.412l0,135.588l-4.5,0l0,-300l4.5,0l0,134.412l15,15.588l-15,14.412Z" style="fill:#a6dfae;"/></g></svg>