<svg xmlns="http://www.w3.org/2000/svg" viewBox="0 0 331 261"><path d="M330.8 26v208.2a26 26 0 0 1-26 26H26a26 26 0 0 1-26-26V26A26 26 0 0 1 26 0h278.7a26 26 0 0 1 26 26" style="fill:#112c14"/><path d="M259.9 216.9 184.4 53.8c-1-2.3-3.2-3.2-8-4l-8.1-1.4v-5h32.3l61 133.7h1.2v-113c0-10.1-3.9-13.5-9.4-14.5l-7-1.2v-5h41v5l-6 1c-8.2 1.2-11.1 4.6-11.1 14.7v152.8zM198.7 216.9 118.5 43.4h20.9l79 173.5zM137.6 216.9 68.9 68.2h-1.2v128c0 9.1 2.7 13.4 10.6 14.7l6 1v5h-41v-5l5.9-1c8.2-1.5 11-5.6 11-14.7v-137c0-6.7-1.2-8.1-8.6-9.3l-8.2-1.5v-5h35l79 173.5z" style="fill:#a6dfae"/></svg>