<?xml version="1.0" encoding="UTF-8" standalone="no"?><!DOCTYPE svg PUBLIC "-//W3C//DTD SVG 1.1//EN" "http://www.w3.org/Graphics/SVG/1.1/DTD/svg11.dtd"><svg width="100%" height="100%" viewBox="0 0 330 260" version="1.1" xmlns="http://www.w3.org/2000/svg" xmlns:xlink="http://www.w3.org/1999/xlink" xml:space="preserve" xmlns:serif="http://www.serif.com/" style="fill-rule:evenodd;clip-rule:evenodd;stroke-linejoin:round;stroke-miterlimit:2;"><path d="M330,20l0,220c0,11.038 -8.962,20 -20,20l-290,0c-11.038,0 -20,-8.962 -20,-20l0,-220c0,-11.038 8.962,-20 20,-20l290,0c11.038,0 20,8.962 20,20Z" style="fill:#112c14;"/><g><path d="M259.876,217c0,0 -80.568,-173.99 -80.573,-174l21.074,-0l61.191,134.125l1.209,0l0,-113.342c0,-10.15 -3.87,-13.533 -9.433,-14.5l-7.014,-1.208l0,-5.075l41.117,0l0,5.075l-6.047,0.967c-8.223,1.208 -11.126,4.592 -11.126,14.742l0,153.217l-10.4,0Z" style="fill:#a6dfae;"/><path d="M198.417,217l-80.438,-174l20.94,0l79.383,174l-19.885,0Z" style="fill:#a6dfae;"/><path d="M137.12,217l-68.931,-149.108l-1.209,0l0,128.325c0,9.183 2.66,13.533 10.642,14.742l6.047,0.967l0,5.075l-41.117,0l0,-5.075l5.805,-0.967c8.223,-1.45 11.126,-5.558 11.126,-14.742l0,-137.267c0,-6.767 -1.209,-8.217 -8.707,-9.425l-8.223,-1.45l0,-5.075l35.07,0l79.383,174l-19.885,0Z" style="fill:#a6dfae;"/></g></svg>