<svg xmlns="http://www.w3.org/2000/svg" xml:space="preserve" style="fill-rule:evenodd;clip-rule:evenodd;stroke-linejoin:round;stroke-miterlimit:2" viewBox="0 0 1440 810"><path d="M1440 32.4v745.2c0 17.882-14.518 32.4-32.4 32.4H32.4C14.518 810 0 795.482 0 777.6V32.4C0 14.518 14.518 0 32.4 0h1375.2c17.882 0 32.4 14.518 32.4 32.4" style="fill:#112c14"/><path d="M.28-.278H.136l.071-.285h.005zm.122.198-.16-.64H.215l-.157.631c-.009.037-.021.058-.047.063l-.025.005V0h.161v-.021L.119-.025Q.073-.031.089-.088l.041-.16h.158l.044.181c.007.029.002.039-.021.042l-.032.004V0h.192v-.021L.446-.026C.42-.031.411-.043.402-.08" style="fill:#a6dfae;fill-rule:nonzero" transform="matrix(94 0 0 94 145.828 307.078)"/><path d="M.023 0h.218C.366 0 .45-.078.45-.194c0-.092-.057-.162-.156-.187v-.005Q.409-.434.41-.55c0-.102-.07-.17-.173-.17H.023v.021l.032.006c.028.005.034.011.034.039v.588c0 .028-.006.034-.034.039l-.032.006zm.205-.025H.16v-.341h.062c.091 0 .153.068.153.169 0 .103-.059.172-.147.172M.213-.391H.16v-.304h.053c.074 0 .124.06.124.149s-.05.155-.124.155" style="fill:#a6dfae;fill-rule:nonzero" transform="matrix(94 0 0 94 187.735 307.078)"/><path d="M.286.009c.076 0 .138-.06.165-.16l-.02-.015C.397-.06.347-.02.282-.02.198-.02.118-.139.118-.364c0-.218.07-.337.163-.337.05 0 .086.036.114.138l.013.047h.024L.427-.698A.3.3 0 0 0 .289-.73C.15-.73.04-.584.04-.364c0 .227.098.373.246.373" style="fill:#a6dfae;fill-rule:nonzero" transform="matrix(94 0 0 94 232.547 307.078)"/><path d="M.023 0h.203C.387 0 .49-.139.49-.357.49-.573.392-.72.236-.72H.023v.021l.032.006c.028.005.034.011.034.039v.588q.001.035-.034.039l-.032.006zM.23-.026H.16v-.668h.076c.116 0 .176.124.176.337 0 .215-.064.331-.182.331" style="fill:#a6dfae;fill-rule:nonzero" transform="matrix(94 0 0 94 277.547 307.078)"/><path d="M.023 0h.386l.012-.214H.395l-.014.068c-.019.093-.068.122-.135.121H.16v-.333h.063c.03 0 .046.011.055.057l.012.058h.026v-.252H.29l-.012.06q-.01.048-.054.047H.16v-.307h.071c.08 0 .124.041.139.131l.008.048h.026L.394-.72H.023v.021l.032.006c.028.005.034.011.034.039v.588c0 .028-.006.034-.034.039l-.032.006z" style="fill:#a6dfae;fill-rule:nonzero" transform="matrix(94 0 0 94 326.297 307.078)"/><path d="M.16-.071v-.287h.048c.03 0 .046.011.055.057l.012.058h.026v-.252H.275l-.012.06q-.01.048-.054.047H.16v-.307h.076c.046 0 .105.032.121.135l.007.044H.39L.38-.72H.023v.021l.032.006c.028.005.034.011.034.039v.588c0 .028-.006.034-.034.039l-.032.006V0h.214q.015 0 .015-.012 0-.01-.011-.011L.194-.03C.166-.034.16-.043.16-.071" style="fill:#a6dfae;fill-rule:nonzero" transform="matrix(94 0 0 94 368.766 307.078)"/><path d="M.291.009a.3.3 0 0 0 .154-.04v-.29c0-.028.001-.038.03-.042l.023-.003v-.022H.291v.022l.049.005c.028.003.034.011.034.039v.219c0 .065-.028.085-.083.085-.102 0-.173-.121-.173-.346 0-.218.07-.337.168-.337.065 0 .097.036.127.145l.011.04h.023l-.003-.18a.3.3 0 0 0-.14-.034C.15-.73.04-.584.04-.364c0 .227.088.373.251.373" style="fill:#a6dfae;fill-rule:nonzero" transform="matrix(94 0 0 94 406.454 307.078)"/><path d="M.023 0h.206v-.021L.194-.027C.166-.032.16-.039.16-.067v-.291h.226v.291c0 .028-.006.035-.034.04l-.035.006V0h.206v-.021L.491-.027C.463-.032.457-.038.457-.066v-.588c0-.028.006-.034.034-.039l.032-.006V-.72H.317v.021l.035.006c.028.005.034.012.034.04v.265H.16v-.265c0-.028.006-.035.034-.04l.035-.006V-.72H.023v.021l.032.006c.028.005.034.011.034.039v.588c0 .028-.006.034-.034.039l-.032.006z" style="fill:#a6dfae;fill-rule:nonzero" transform="matrix(94 0 0 94 453.985 307.078)"/><path d="M.023 0h.203v-.021L.194-.027C.166-.032.16-.038.16-.066v-.588c0-.028.006-.034.034-.039l.032-.006V-.72H.023v.021l.032.006c.028.005.034.011.034.039v.588c0 .028-.006.034-.034.039l-.032.006z" style="fill:#a6dfae;fill-rule:nonzero" transform="matrix(94 0 0 94 505.172 307.078)"/><path d="M.014.215C.104.215.16.116.16-.044v-.61c0-.028.006-.034.034-.039l.032-.006V-.72H.023v.021l.032.006c.028.005.034.011.034.039v.745C.089.144.075.175.05.175.014.175.029.109-.015.109c-.024 0-.041.019-.041.046 0 .036.028.06.07.06" style="fill:#a6dfae;fill-rule:nonzero" transform="matrix(94 0 0 94 528.516 307.078)"/><path d="M.16-.654c0-.028.006-.034.034-.039L.23-.699V-.72H.023v.021l.032.006c.028.005.034.011.034.039v.588c0 .028-.006.034-.034.039l-.032.006V0h.205v-.021L.194-.027C.166-.032.16-.039.16-.067v-.23l.043-.067.153.29q.022.043-.016.049l-.027.004V0h.201v-.021L.48-.027C.464-.03.454-.038.443-.059L.246-.43l.123-.193C.402-.675.423-.69.465-.695l.031-.004V-.72H.301v.021l.034.006q.04.007.006.058L.16-.351z" style="fill:#a6dfae;fill-rule:nonzero" transform="matrix(94 0 0 94 551.86 307.078)"/><path d="M.023 0H.38l.015-.226H.369l-.015.078c-.02.103-.076.123-.122.123-.041 0-.072-.02-.072-.068v-.56c0-.028.006-.035.034-.04L.23-.699V-.72H.023v.021l.032.006c.028.005.034.011.034.039v.588c0 .028-.006.034-.034.039l-.032.006z" style="fill:#a6dfae;fill-rule:nonzero" transform="matrix(94 0 0 94 597.235 307.078)"/><path d="M.305 0h.018l.164-.661h.005l.018.595c.001.028-.006.034-.034.039l-.034.006V0h.206v-.021L.615-.027C.587-.032.582-.038.581-.066l-.02-.588C.56-.682.567-.688.595-.693l.033-.006V-.72H.472l-.136.543H.331L.2-.72H.037v.021l.033.006c.031.006.037.011.036.039l-.02.568C.085-.048.074-.03.04-.025l-.025.004V0h.171v-.021L.161-.025C.128-.03.116-.048.117-.086l.02-.575h.005z" style="fill:#a6dfae;fill-rule:nonzero" transform="matrix(94 0 0 94 635.954 307.078)"/><path d="M.409 0h.043v-.634c0-.042.012-.056.046-.061l.025-.004V-.72h-.17v.021l.029.005c.023.004.039.018.039.06v.469H.416L.163-.72H.018v.021l.034.006c.031.005.036.011.036.039v.568c0 .038-.012.055-.046.061l-.024.004V0h.17v-.021L.163-.025C.13-.03.119-.048.119-.086v-.531h.005z" style="fill:#a6dfae;fill-rule:nonzero" transform="matrix(94 0 0 94 698.298 307.078)"/><path d="M.27.009c.128 0 .23-.162.23-.37C.5-.568.398-.73.27-.73c-.129 0-.23.162-.23.369 0 .208.101.37.23.37m0-.027C.176-.018.119-.13.119-.361c0-.23.057-.342.151-.342s.151.112.151.342-.057.343-.151.343" style="fill:#a6dfae;fill-rule:nonzero" transform="matrix(94 0 0 94 747.798 307.078)"/><path d="M.023 0H.25v-.021L.204-.029C.167-.035.16-.042.16-.07v-.256h.086c.115 0 .196-.08.196-.194a.19.19 0 0 0-.199-.2H.021v.021l.034.006c.028.005.034.011.034.039v.588c0 .028-.006.034-.034.039l-.032.006zm.204-.351H.16v-.344h.061c.093 0 .146.063.146.172 0 .107-.053.172-.14.172" style="fill:#a6dfae;fill-rule:nonzero" transform="matrix(94 0 0 94 797.485 307.078)"/><path d="M.392.174A.21.21 0 0 0 .55.097L.536.084C.494.123.444.128.4.128A.43.43 0 0 1 .168.057L.211.038C.242.025.27.012.304.005.416-.02.5-.173.5-.361.5-.568.398-.73.27-.73c-.129 0-.23.162-.23.369 0 .181.081.344.201.367l-.09.04C.114.031.073.027.065.044s.027.033.082.022c.099.056.168.108.245.108M.27-.018C.176-.018.119-.13.119-.361c0-.23.057-.342.151-.342s.151.112.151.342-.057.343-.151.343" style="fill:#a6dfae;fill-rule:nonzero" transform="matrix(94 0 0 94 841.173 307.078)"/><path d="M.431-.059.289-.35A.2.2 0 0 0 .44-.54c0-.105-.085-.18-.203-.18H.023v.021l.034.006c.028.005.034.011.034.039l-.002.588c0 .028-.006.034-.034.039l-.033.006V0H.25v-.021L.204-.029C.167-.035.16-.042.16-.07v-.276h.03c.013 0 .032.007.041.025L.388 0h.114v-.021L.468-.027Q.445-.03.431-.059M.227-.371H.16v-.324h.053c.095 0 .152.059.152.157 0 .101-.048.167-.138.167" style="fill:#a6dfae;fill-rule:nonzero" transform="matrix(94 0 0 94 890.86 307.078)"/><path d="M.184.009c.112 0 .193-.075.193-.187 0-.085-.044-.157-.144-.238C.139-.49.107-.536.107-.593.107-.661.143-.7.201-.7s.085.048.113.148l.01.036h.023L.344-.695A.2.2 0 0 0 .227-.73c-.107 0-.183.064-.183.163 0 .075.043.137.142.208.089.067.128.133.128.211 0 .081-.042.128-.109.128Q.11-.019.078-.163L.066-.215H.041l.006.19a.3.3 0 0 0 .137.034" style="fill:#a6dfae;fill-rule:nonzero" transform="matrix(94 0 0 94 938.954 307.078)"/><path d="M.118 0h.225q.015 0 .015-.011T.345-.023L.3-.03C.274-.034.266-.041.266-.069v-.626h.031c.05 0 .107.04.12.135l.006.044h.026L.44-.72H.021l-.009.204h.026L.044-.56c.013-.095.07-.135.12-.135h.031v.626c0 .028-.008.035-.034.039l-.045.007q-.013.002-.013.012T.118 0" style="fill:#a6dfae;fill-rule:nonzero" transform="matrix(94 0 0 94 976.36 307.078)"/><path d="M.275.009c.108 0 .179-.08.179-.201v-.442Q.453-.688.488-.693l.033-.006V-.72H.352v.021l.036.006q.035.005.034.06v.442c0 .101-.048.16-.13.16-.081 0-.129-.058-.129-.16v-.462c0-.028.007-.035.034-.04l.035-.006V-.72H.026v.021l.032.006c.028.005.034.011.034.039v.462c0 .119.075.201.183.201" style="fill:#a6dfae;fill-rule:nonzero" transform="matrix(94 0 0 94 1019.58 307.078)"/><path d="M.055-.64.214 0h.028l.157-.631C.408-.668.42-.689.446-.694l.026-.005V-.72H.308v.021l.03.004q.045.006.03.063L.25-.157H.245l-.12-.496C.118-.682.123-.692.146-.695L.18-.699V-.72h-.195v.021l.026.005c.026.005.035.017.044.054" style="fill:#a6dfae;fill-rule:nonzero" transform="matrix(94 0 0 94 1068.892 307.078)"/><path d="M.42 0h.025l.156-.631c.011-.046.022-.063.04-.065l.026-.003V-.72H.528v.021l.024.004q.033.006.018.063l-.118.475H.447L.381-.43l.058-.201c.013-.045.022-.063.04-.065l.026-.003V-.72H.383v.021l.024.004c.012.002.018.013.003.063l-.043.145-.04-.166C.32-.681.322-.692.34-.695l.024-.004V-.72H.202v.021l.027.005c.016.003.022.017.031.054l.06.242-.068.247H.247L.125-.653C.118-.682.122-.691.146-.695L.17-.699V-.72h-.185v.021l.026.005c.027.005.035.017.044.054l.16.64H.24l.095-.34z" style="fill:#a6dfae;fill-rule:nonzero" transform="matrix(94 0 0 94 1109.485 307.078)"/><path d="M.022 0h.196v-.021L.175-.03Q.142-.036.161-.077l.097-.235h.005l.11.245q.015.036-.023.04l-.034.006V0h.209v-.021L.491-.027C.475-.03.459-.035.445-.067L.304-.381.41-.629c.017-.04.04-.055.072-.063l.029-.007V-.72H.327v.021l.042.009c.023.005.026.018.014.047L.29-.424H.285L.183-.653C.171-.679.181-.691.204-.694l.034-.005V-.72H.031v.021l.033.005c.017.003.033.011.046.041l.134.298-.111.264C.116-.05.092-.038.051-.028l-.029.007z" style="fill:#a6dfae;fill-rule:nonzero" transform="matrix(94 0 0 94 1166.58 307.078)"/><path d="M.114 0h.251v-.021L.309-.03C.283-.034.275-.041.275-.069v-.273l.144-.289c.022-.044.034-.061.052-.064l.022-.004V-.72H.326v.021l.037.005c.031.004.04.028.023.062L.26-.376H.255l-.13-.277C.112-.681.123-.692.146-.695L.18-.699V-.72h-.196v.021l.021.004c.021.004.032.017.042.039l.157.329v.258c0 .028-.008.035-.034.039l-.056.009z" style="fill:#a6dfae;fill-rule:nonzero" transform="matrix(94 0 0 94 1213.08 307.078)"/><path d="M.018 0h.37l.014-.226H.376l-.015.078C.341-.045.283-.03.227-.03H.1v-.005l.297-.663V-.72h-.34l-.019.204h.025l.018-.061C.107-.665.149-.69.199-.69h.116v.005l-.297.662z" style="fill:#a6dfae;fill-rule:nonzero" transform="matrix(94 0 0 94 1257.798 307.078)"/><path d="M.147-.037q-.05 0-.051-.069c0-.058.032-.125.149-.16v.091c0 .078-.047.138-.098.138m.098-.041H.25Q.248.008.309.009c.029 0 .057-.016.073-.059L.37-.059q-.012.026-.035.026T.313-.066v-.335Q.311-.517.214-.516c-.085 0-.183.083-.183.161q.001.028.028.028c.022 0 .048-.018.055-.061.012-.07.041-.098.075-.098s.056.025.056.089v.103c-.131.042-.221.117-.221.206 0 .059.04.097.096.097.049 0 .081-.021.125-.087" style="fill:#a6dfae;fill-rule:nonzero" transform="matrix(94 0 0 94 250.641 439.266)"/><path d="M.204-.016C.16-.016.13-.053.13-.113v-.252c0-.067.038-.106.084-.106.073 0 .115.074.115.211 0 .15-.05.244-.125.244M.13-.74H.112a.3.3 0 0 1-.104.042v.021l.029.004c.019.003.025.009.025.033v.48c0 .08-.003.13-.009.16H.08l.022-.027h.005a.14.14 0 0 0 .099.036c.112 0 .197-.116.197-.283 0-.145-.066-.242-.158-.242-.036 0-.067.012-.11.06H.13z" style="fill:#a6dfae;fill-rule:nonzero" transform="matrix(94 0 0 94 287.204 439.266)"/><path d="M.201-.037c-.059 0-.104-.077-.104-.22 0-.168.052-.233.092-.233.034 0 .059.03.087.147H.3L.298-.492a.12.12 0 0 0-.082-.024c-.109 0-.193.11-.193.28 0 .152.074.245.162.245.067 0 .109-.043.129-.112L.299-.116C.27-.051.235-.037.201-.037" style="fill:#a6dfae;fill-rule:nonzero" transform="matrix(94 0 0 94 328.735 439.266)"/><path d="M.203-.037c-.062 0-.099-.073-.099-.21 0-.15.05-.244.125-.244.044 0 .074.037.074.097v.225c0 .074-.049.132-.1.132m.095-.034h.009c0 .057.024.08.06.08.029 0 .057-.016.073-.059L.428-.059q-.012.026-.035.026T.371-.066V-.74H.353a.3.3 0 0 1-.104.042v.021l.029.004c.019.003.025.009.025.033v.128q0 .015-.016.007a.1.1 0 0 0-.055-.011C.115-.516.03-.4.03-.233c0 .145.062.242.151.242.044 0 .073-.015.117-.08" style="fill:#a6dfae;fill-rule:nonzero" transform="matrix(94 0 0 94 360.516 439.266)"/><path d="M.261-.302H.096C.101-.4.134-.491.197-.491c.057 0 .068.091.064.189m.066.199L.312-.116C.283-.051.25-.037.21-.037c-.082 0-.119-.099-.115-.24h.234C.338-.44.285-.516.198-.516c-.099 0-.175.11-.175.267 0 .155.071.258.175.258.067 0 .109-.043.129-.112" style="fill:#a6dfae;fill-rule:nonzero" transform="matrix(94 0 0 94 400.829 439.266)"/><path d="M.085-.067c0 .028-.006.039-.034.042l-.036.004V0h.234v-.021L.187-.027C.159-.03.153-.039.153-.067v-.415h.11V-.51h-.11v-.1c0-.082.016-.107.043-.107.05 0 .027.085.081.085q.033 0 .035-.038c0-.043-.041-.078-.094-.078-.086 0-.133.094-.133.198v.006c0 .023-.016.042-.057.042v.02h.057z" style="fill:#a6dfae;fill-rule:nonzero" transform="matrix(94 0 0 94 434.11 439.266)"/><path d="M.178.215C.306.215.397.144.397.046c0-.082-.06-.133-.156-.133H.143c-.029 0-.038-.024-.02-.045L.14-.151l.031-.032.026.003c.084 0 .148-.072.148-.168a.18.18 0 0 0-.042-.12l.074-.017V-.51h-.1c-.044 0-.052-.006-.08-.006-.084 0-.15.072-.15.164 0 .064.032.126.099.16l-.081.071c-.044.039-.004.077.054.092C.04.04.014.064.014.111c0 .057.063.104.164.104M.19.193C.116.193.074.154.074.095c0-.028.006-.05.047-.094l.027-.027h.084c.064 0 .101.034.101.094 0 .073-.06.125-.143.125m.006-.398C.148-.205.118-.261.118-.35c0-.087.031-.144.078-.144s.078.057.078.144c0 .089-.03.145-.078.145" style="fill:#a6dfae;fill-rule:nonzero" transform="matrix(94 0 0 94 458.485 439.266)"/><path d="M.142-.74H.124a.3.3 0 0 1-.104.042v.021l.029.004c.019.003.025.009.025.033v.573c0 .028-.006.037-.034.042l-.022.004V0H.21v-.021L.176-.026C.148-.03.142-.039.142-.067v-.268c0-.073.049-.135.113-.135.044 0 .069.024.069.089v.314c0 .028-.006.039-.034.042l-.021.002V0h.186v-.021L.426-.026C.398-.031.392-.039.392-.067v-.325c0-.081-.039-.124-.099-.124-.051 0-.086.018-.146.076H.142z" style="fill:#a6dfae;fill-rule:nonzero" transform="matrix(94 0 0 94 496.172 439.266)"/><path d="M.015 0h.196v-.021L.176-.026C.153-.029.147-.039.147-.067V-.51H.129a.16.16 0 0 1-.107.05v.02l.031.004c.019.002.026.009.026.033v.336c0 .028-.006.037-.039.042l-.025.004zm.099-.605c.028 0 .049-.022.049-.053S.142-.71.114-.71s-.05.021-.05.052.022.053.05.053" style="fill:#a6dfae;fill-rule:nonzero" transform="matrix(94 0 0 94 540.235 439.266)"/><path d="M.114-.605c.028 0 .049-.022.049-.053 0-.03-.02-.052-.049-.052s-.05.022-.05.052.021.053.05.053m.033.561V-.51H.129a.16.16 0 0 1-.107.05v.02l.031.004c.019.002.026.009.026.033v.494C.079.144.065.175.04.175.004.175.018.119-.024.119c-.024 0-.039.019-.039.042 0 .032.028.054.067.054.087 0 .143-.099.143-.259" style="fill:#a6dfae;fill-rule:nonzero" transform="matrix(94 0 0 94 561.141 439.266)"/><path d="M.142-.067v-.149l.045-.062.108.204q.022.042-.016.049l-.028.004V0h.198v-.021l-.02-.004a.07.07 0 0 1-.056-.042L.23-.331.299-.42c.042-.045.069-.061.1-.066l.02-.003V-.51H.225v.021l.033.006c.027.005.031.027.007.058L.142-.27v-.47H.124a.3.3 0 0 1-.104.042v.021l.029.004c.019.003.025.009.025.033v.573c0 .028-.006.037-.034.042l-.022.004V0h.194v-.021L.176-.026C.148-.03.142-.039.142-.067" style="fill:#a6dfae;fill-rule:nonzero" transform="matrix(94 0 0 94 581.297 439.266)"/><path d="M.142-.105V-.74h-.02a.3.3 0 0 1-.105.042v.02l.032.005c.019.003.025.009.025.033v.556c0 .058.032.093.078.093.038 0 .073-.025.101-.067L.238-.071c-.01.012-.034.034-.058.034-.035 0-.038-.033-.038-.068" style="fill:#a6dfae;fill-rule:nonzero" transform="matrix(94 0 0 94 623.579 439.266)"/><path d="M.142-.436H.137V-.51H.119a.14.14 0 0 1-.099.05v.02l.029.004c.019.003.025.009.025.033v.336c0 .028-.006.037-.034.042l-.022.004V0h.193v-.021L.176-.026C.148-.03.142-.039.142-.067v-.268c0-.073.049-.135.109-.135.04 0 .065.024.065.089v.314c0 .028-.006.037-.034.042L.26-.021V0h.191v-.021L.418-.026C.39-.03.384-.039.384-.067v-.268c0-.073.049-.135.109-.135.04 0 .065.024.065.089v.314c0 .028-.006.038-.034.042l-.026.004V0H.69v-.021L.66-.026C.632-.031.626-.039.626-.067v-.325c0-.081-.039-.124-.095-.124-.041 0-.078.013-.147.08H.379c-.012-.058-.051-.08-.09-.08-.05 0-.087.022-.147.08" style="fill:#a6dfae;fill-rule:nonzero" transform="matrix(94 0 0 94 647.298 439.266)"/><path d="M.018 0H.21v-.021L.176-.026C.148-.03.142-.039.142-.067v-.268c0-.073.049-.135.113-.135.044 0 .069.024.069.089v.314c0 .028-.006.039-.034.042l-.021.002V0h.186v-.021L.426-.026C.398-.031.392-.039.392-.067v-.325c0-.081-.039-.124-.099-.124-.051 0-.088.019-.151.08H.137V-.51H.119a.14.14 0 0 1-.099.05v.02l.029.004c.019.003.025.009.025.033v.336c0 .028-.006.037-.034.042l-.022.004z" style="fill:#a6dfae;fill-rule:nonzero" transform="matrix(94 0 0 94 711.516 439.266)"/><path d="M.203.009c.102 0 .18-.114.18-.263 0-.147-.079-.262-.18-.262s-.18.115-.18.262c0 .149.078.263.18.263m0-.025q-.105 0-.104-.238 0-.236.104-.237.105 0 .104.237.001.238-.104.238" style="fill:#a6dfae;fill-rule:nonzero" transform="matrix(94 0 0 94 753.704 439.266)"/><path d="M.215-.016c-.044 0-.074-.037-.074-.097v-.252c0-.067.038-.106.084-.106.073 0 .115.074.115.211 0 .15-.05.244-.125.244M.136-.45v-.06H.118a.14.14 0 0 1-.099.05v.02l.029.004c.019.003.025.009.025.033v.541C.073.166.067.175.039.18L.015.184v.021h.206V.184L.175.177C.147.173.141.166.141.138v-.149c.027.014.043.02.071.02.117 0 .202-.116.202-.283 0-.145-.066-.242-.158-.242a.12.12 0 0 0-.091.041L.141-.45z" style="fill:#a6dfae;fill-rule:nonzero" transform="matrix(94 0 0 94 791.954 439.266)"/><path d="M.371.138v-.485c0-.08.003-.125.008-.155Q.382-.516.371-.516c-.006 0-.012.003-.025.018q-.017.024-.04.008a.12.12 0 0 0-.074-.026C.115-.516.03-.4.03-.233c0 .145.062.242.151.242.042 0 .071-.013.117-.08h.005v.209c0 .028-.006.035-.034.039L.223.184v.021h.206V.184L.405.18C.377.175.371.166.371.138M.203-.037c-.062 0-.099-.073-.099-.21 0-.15.05-.244.125-.244.044 0 .074.037.074.097v.225c0 .074-.049.132-.1.132" style="fill:#a6dfae;fill-rule:nonzero" transform="matrix(94 0 0 94 833.579 439.266)"/><path d="m.154-.446-.017.035V-.51H.119a.14.14 0 0 1-.099.05v.02l.029.004c.019.003.025.009.025.033v.336c0 .028-.006.037-.034.042l-.022.004V0H.21v-.021L.176-.026C.148-.03.142-.039.142-.067v-.232c0-.091.035-.161.071-.161.037 0 .023.05.066.05.026 0 .039-.018.039-.043 0-.032-.021-.063-.065-.063-.039 0-.076.023-.099.07" style="fill:#a6dfae;fill-rule:nonzero" transform="matrix(94 0 0 94 875.016 439.266)"/><path d="M.131.009C.22.009.28-.046.28-.132Q.279-.229.179-.3C.105-.351.082-.378.082-.425c0-.036.025-.063.06-.063.039 0 .065.032.093.129h.023L.256-.491a.13.13 0 0 0-.082-.025c-.088 0-.146.051-.146.127 0 .056.031.101.1.148.069.05.096.086.096.139s-.029.085-.067.085C.11-.017.078-.043.053-.152H.028l.003.137a.2.2 0 0 0 .1.024" style="fill:#a6dfae;fill-rule:nonzero" transform="matrix(94 0 0 94 904.829 439.266)"/><path d="M.145.009Q.203.007.246-.058L.231-.071c-.01.012-.034.034-.058.034-.035 0-.038-.033-.038-.068v-.377h.093V-.51H.135v-.139H.113C.091-.576.062-.533.01-.502v.02h.057v.398c0 .058.032.093.078.093" style="fill:#a6dfae;fill-rule:nonzero" transform="matrix(94 0 0 94 933.704 439.266)"/><path d="M.38-.107V-.51H.362l-.105.005v.021l.03.002c.019.001.025.009.025.033v.283c0 .07-.047.129-.108.129-.042 0-.066-.023-.066-.085V-.51H.12l-.105.005v.021l.03.002c.019.001.025.009.025.033v.348c0 .08.051.11.101.11.047 0 .081-.017.141-.079h.005V0h.02a.14.14 0 0 1 .091-.05v-.021L.405-.074C.386-.076.38-.083.38-.107" style="fill:#a6dfae;fill-rule:nonzero" transform="matrix(94 0 0 94 957.235 439.266)"/><path d="M.048-.443.182 0h.024l.128-.419C.347-.461.361-.475.38-.482l.019-.007V-.51H.248v.021l.032.006c.033.006.035.022.024.058l-.088.298H.211L.12-.443C.112-.472.118-.48.15-.485l.027-.004V-.51h-.189v.021l.026.005c.018.003.024.009.034.041" style="fill:#a6dfae;fill-rule:nonzero" transform="matrix(94 0 0 94 999.798 439.266)"/><path d="M.048-.443.172 0h.03l.099-.37.09.37h.03l.117-.419C.55-.461.566-.475.584-.482l.019-.007V-.51H.454v.021l.032.006c.034.006.034.022.024.058l-.083.298H.422l-.07-.316C.346-.472.351-.48.382-.485l.027-.004V-.51H.223v.021l.026.005c.02.004.024.008.034.04l.004.018-.079.299H.203L.117-.443C.109-.472.114-.48.147-.485l.027-.004V-.51h-.186v.021l.026.005c.019.004.025.009.034.041" style="fill:#a6dfae;fill-rule:nonzero" transform="matrix(94 0 0 94 1034.954 439.266)"/><path d="M.216 0h.17v-.021L.361-.026C.348-.029.341-.035.325-.067L.219-.275l.078-.144c.027-.05.042-.058.065-.064l.022-.006V-.51H.233v.021l.036.008q.028.005.007.048l-.067.127H.204L.13-.451Q.117-.477.146-.484l.026-.005V-.51H.001v.021l.025.005c.013.003.021.011.036.041l.102.2-.083.152c-.027.05-.042.058-.065.064l-.023.006V0h.151v-.021L.109-.029Q.081-.034.102-.077l.072-.136h.005l.078.154q.012.026-.016.033l-.025.005z" style="fill:#a6dfae;fill-rule:nonzero" transform="matrix(94 0 0 94 1089.235 439.266)"/><path d="M.083.205c.041 0 .065-.018.11-.159l.149-.465c.014-.042.027-.056.046-.063l.019-.007V-.51h-.15v.021l.031.006c.034.006.035.022.024.058L.22-.127H.215L.12-.443C.111-.472.118-.48.15-.485l.027-.004V-.51H-.01v.021l.024.005c.019.004.024.009.034.041l.135.431-.022.076C.14.131.13.145.116.145.093.145.108.099.065.099c-.026 0-.041.02-.041.045 0 .032.023.061.059.061" style="fill:#a6dfae;fill-rule:nonzero" transform="matrix(94 0 0 94 1123.642 439.266)"/><path d="M.015 0h.294L.34-.178H.317l-.034.082c-.021.05-.044.07-.122.07H.094l.243-.465V-.51H.061l-.026.147h.023l.026-.055C.103-.459.13-.484.195-.484H.26l-.245.465z" style="fill:#a6dfae;fill-rule:nonzero" transform="matrix(94 0 0 94 1159.923 439.266)"/><path d="M.23.009c.116 0 .194-.162.194-.37C.424-.568.346-.73.23-.73c-.117 0-.194.162-.194.369 0 .208.077.37.194.37m0-.027C.146-.018.108-.13.108-.361c0-.23.038-.342.122-.342q.124-.001.122.342.002.345-.122.343" style="fill:#a6dfae;fill-rule:nonzero" transform="matrix(94 0 0 94 263.485 571.453)"/><path d="M.118-.62v.554c0 .028-.014.035-.049.039L.02-.021V0h.26v-.021L.231-.027C.196-.031.182-.038.182-.066V-.72h-.02a.3.3 0 0 1-.137.042v.02l.05.005c.034.003.043.009.043.033" style="fill:#a6dfae;fill-rule:nonzero" transform="matrix(94 0 0 94 305.672 571.453)"/><path d="M.02 0h.344l.015-.225H.353l-.011.057C.325-.08.292-.06.216-.06H.079L.172-.2C.28-.362.361-.468.361-.573.361-.671.297-.73.205-.73c-.081 0-.168.046-.181.18l.027.011C.064-.647.126-.69.19-.69s.099.046.099.128c0 .092-.042.196-.142.348L.02-.02z" style="fill:#a6dfae;fill-rule:nonzero" transform="matrix(94 0 0 94 333.329 571.453)"/><path d="M.269-.592c0 .09-.052.146-.138.175v.022c.1-.008.168.066.168.183s-.058.194-.143.194c-.073 0-.05-.078-.1-.078-.021 0-.036.014-.036.036 0 .042.06.069.132.069.131 0 .219-.096.219-.239C.371-.329.31-.406.22-.421v-.005C.296-.457.341-.51.341-.59c0-.079-.043-.14-.135-.14-.09 0-.162.06-.172.16l.027.011C.071-.641.126-.69.192-.69c.054 0 .077.047.077.098" style="fill:#a6dfae;fill-rule:nonzero" transform="matrix(94 0 0 94 371.204 571.453)"/><path d="M.157 0h.22v-.021L.343-.027C.315-.032.309-.038.309-.066V-.21h.07v-.056h-.07v-.25l-.064.04v.21H.056L.314-.72h-.05L.01-.235v.025h.235v.144c0 .026-.006.033-.034.037l-.054.008z" style="fill:#a6dfae;fill-rule:nonzero" transform="matrix(94 0 0 94 408.797 571.453)"/><path d="M.132.009c.105 0 .217-.087.217-.238 0-.128-.07-.237-.239-.252L.144-.66h.189L.35-.72H.123l-.059.303c.163.011.213.085.213.209 0 .139-.071.19-.134.19-.078 0-.054-.078-.1-.078-.02 0-.033.014-.033.034 0 .047.067.071.122.071" style="fill:#a6dfae;fill-rule:nonzero" transform="matrix(94 0 0 94 445.641 571.453)"/><path d="M.216.009c.103 0 .18-.102.18-.238 0-.129-.075-.227-.174-.227a.15.15 0 0 0-.099.035C.159-.595.249-.67.35-.704L.342-.729C.171-.688.036-.48.036-.261c0 .161.069.27.18.27M.214-.018c-.073 0-.112-.07-.112-.2 0-.139.04-.213.116-.213.069 0 .106.072.106.207 0 .134-.038.206-.11.206" style="fill:#a6dfae;fill-rule:nonzero" transform="matrix(94 0 0 94 481.454 571.453)"/><path d="M.083 0h.052L.35-.7v-.02H.037l-.024.085h.025C.047-.653.055-.66.088-.66h.219z" style="fill:#a6dfae;fill-rule:nonzero" transform="matrix(94 0 0 94 521.016 571.453)"/><path d="M.215.009c.107 0 .19-.083.19-.195 0-.069-.027-.136-.148-.21.084-.041.131-.107.131-.177 0-.09-.07-.157-.159-.157-.094 0-.176.067-.176.166 0 .064.034.135.123.192-.103.05-.148.12-.148.2 0 .09.07.181.187.181m.002-.027c-.096 0-.128-.074-.128-.151 0-.08.031-.147.104-.192.107.058.153.12.153.21 0 .081-.049.133-.129.133m.022-.389C.129-.472.112-.529.112-.59c0-.068.046-.113.115-.113.068 0 .102.05.102.127a.19.19 0 0 1-.09.169" style="fill:#a6dfae;fill-rule:nonzero" transform="matrix(94 0 0 94 555.141 571.453)"/><path d="M.102-.018.11.008C.261-.033.386-.211.386-.46c0-.161-.069-.27-.18-.27-.103 0-.18.098-.18.228 0 .124.075.217.174.217a.14.14 0 0 0 .101-.037c-.024.171-.093.264-.199.304M.098-.507q.001-.194.107-.196c.071 0 .109.066.109.19 0 .132-.039.203-.113.203-.067 0-.103-.069-.103-.197" style="fill:#a6dfae;fill-rule:nonzero" transform="matrix(94 0 0 94 595.735 571.453)"/><path d="M.117-.179q.012 0 .012-.016C.131-.37.163-.639.163-.694.163-.727.146-.75.117-.75s-.046.023-.046.056c0 .055.032.324.034.499q0 .016.012.016m0 .188a.05.05 0 0 0 .052-.053.05.05 0 0 0-.052-.052.05.05 0 0 0-.053.052.05.05 0 0 0 .053.053" style="fill:#a6dfae;fill-rule:nonzero" transform="matrix(94 0 0 94 651.235 571.453)"/><path d="M.301.081A.37.37 0 0 0 .512.009L.497-.004a.36.36 0 0 1-.186.056C.162.052.079-.072.099-.255.12-.441.223-.553.373-.553c.124 0 .201.089.201.231 0 .116-.043.228-.109.228-.023 0-.031-.031-.023-.083L.48-.431H.456l-.015.032H.436C.431-.418.41-.438.368-.438c-.077 0-.153.07-.168.202-.013.108.024.173.092.173Q.36-.064.394-.14h.005c-.008.048.014.077.059.077.09 0 .155-.122.155-.256C.613-.475.518-.58.377-.58c-.184 0-.31.125-.334.332-.023.196.081.329.258.329M.298-.1C.261-.1.241-.154.253-.243c.014-.109.061-.168.109-.168.056 0 .057.054.045.144Q.383-.102.298-.1" style="fill:#a6dfae;fill-rule:nonzero" transform="matrix(94 0 0 94 673.454 571.453)"/><path d="M.106 0h.032l.053-.23h.193L.331 0h.032l.053-.23h.146v-.03H.423l.046-.2h.146v-.03H.476l.053-.23H.497l-.053.23H.251l.053-.23H.272l-.053.23H.073v.03h.139l-.046.2H.02v.03h.139zm.285-.26H.198l.046-.2h.193z" style="fill:#a6dfae;fill-rule:nonzero" transform="matrix(94 0 0 94 734.673 571.453)"/><path d="M.311.009a.3.3 0 0 0 .14-.033l.004-.191H.431l-.015.059C.389-.051.367-.02.309-.02.245-.02.181-.112.166-.284h.149l.007-.034H.164L.163-.364l.001-.04H.34l.007-.034H.166c.012-.17.07-.263.142-.263.048 0 .074.038.102.138l.013.047h.023L.443-.698A.3.3 0 0 0 .314-.73c-.111 0-.205.115-.225.292H.015l-.007.034h.078l-.001.04.001.046H.015l-.007.034h.081c.019.181.104.293.222.293" style="fill:#a6dfae;fill-rule:nonzero" transform="matrix(94 0 0 94 794.204 571.453)"/><path d="M.154-.381c.073 0 .124-.077.124-.175S.227-.73.154-.73C.079-.73.03-.654.03-.556s.049.175.124.175m0-.02c-.041 0-.069-.04-.069-.155S.113-.71.154-.71s.069.04.069.154c0 .115-.028.155-.069.155M.061 0h.036l.432-.72H.493zm.375.01C.509.01.56-.067.56-.165S.509-.339.436-.339c-.075 0-.124.076-.124.174S.361.01.436.01m0-.02C.395-.01.367-.05.367-.165s.028-.154.069-.154.069.04.069.154c0 .115-.028.155-.069.155" style="fill:#a6dfae;fill-rule:nonzero" transform="matrix(94 0 0 94 839.579 571.453)"/><path d="m.086-.491.131-.17.13.17.02-.016L.245-.74H.188l-.122.233z" style="fill:#a6dfae;fill-rule:nonzero" transform="matrix(94 0 0 94 894.891 571.453)"/><path d="M.206.009c.067 0 .126-.034.182-.112L.453 0h.133v-.021L.532-.027C.516-.029.508-.039.495-.059L.427-.168c.021-.039.028-.057.058-.127.022-.05.048-.064.077-.068l.029-.004v-.021H.394v.021l.045.006q.04.004.017.059a1 1 0 0 1-.047.104L.264-.43c.089-.045.148-.098.148-.179a.126.126 0 0 0-.13-.124c-.095 0-.158.066-.158.147 0 .056.023.102.066.172-.116.07-.158.161-.158.246 0 .095.063.177.174.177m.013-.047c-.083 0-.121-.067-.121-.15 0-.075.025-.153.106-.204l.166.261c-.05.072-.104.093-.151.093m.134-.567a.18.18 0 0 1-.103.154C.204-.524.187-.558.187-.607s.035-.099.09-.099c.061 0 .076.053.076.101" style="fill:#a6dfae;fill-rule:nonzero" transform="matrix(94 0 0 94 935.485 571.453)"/><path d="M.222-.416a.04.04 0 0 0 .039-.039c0-.031-.025-.052-.031-.103q0-.012.011-.005c.04.033.047.063.073.078.017.01.04.007.053-.014a.04.04 0 0 0-.014-.054C.325-.569.294-.556.248-.577q-.012-.006 0-.012C.294-.61.325-.597.353-.613a.04.04 0 0 0 .014-.054.04.04 0 0 0-.053-.014C.286-.665.281-.633.24-.602Q.23-.595.23-.608C.236-.659.261-.68.261-.711A.04.04 0 0 0 .222-.75a.04.04 0 0 0-.039.039c0 .031.025.052.031.103q0 .013-.01.006C.163-.633.158-.665.13-.681a.04.04 0 0 0-.053.014.04.04 0 0 0 .014.054c.028.016.059.003.105.024q.012.006 0 .012C.15-.556.119-.569.091-.553a.04.04 0 0 0-.014.054.04.04 0 0 0 .053.014C.156-.5.163-.53.203-.563q.01-.007.011.005c-.006.051-.031.072-.031.103 0 .02.014.039.039.039" style="fill:#a6dfae;fill-rule:nonzero" transform="matrix(94 0 0 94 989.767 571.453)"/><path d="M.284.105.296.089a.54.54 0 0 1-.158-.411c0-.163.048-.312.158-.411L.284-.749a.534.534 0 0 0 0 .854" style="fill:#a6dfae;fill-rule:nonzero" transform="matrix(94 0 0 94 1031.392 571.453)"/><path d="m.044.089.012.016a.534.534 0 0 0 0-.854l-.012.016c.11.099.158.248.158.411a.54.54 0 0 1-.158.411" style="fill:#a6dfae;fill-rule:nonzero" transform="matrix(94 0 0 94 1063.267 571.453)"/><path d="M.015.075h.346v.034H.015z" style="fill:#a6dfae;fill-rule:nonzero" transform="matrix(94 0 0 94 1095.142 571.453)"/><path d="M.248-.153h.036v-.201h.187v-.034H.284V-.59H.248v.202H.06v.034h.188z" style="fill:#a6dfae;fill-rule:nonzero" transform="matrix(94 0 0 94 1130.392 571.453)"/></svg>