<?xml version="1.0" encoding="UTF-8" standalone="no"?><!DOCTYPE svg PUBLIC "-//W3C//DTD SVG 1.1//EN" "http://www.w3.org/Graphics/SVG/1.1/DTD/svg11.dtd"><svg width="100%" height="100%" viewBox="0 0 600 300" version="1.1" xmlns="http://www.w3.org/2000/svg" xmlns:xlink="http://www.w3.org/1999/xlink" xml:space="preserve" xmlns:serif="http://www.serif.com/" style="fill-rule:evenodd;clip-rule:evenodd;stroke-linejoin:round;stroke-miterlimit:2;"><rect id="re" x="0" y="0" width="600" height="300" style="fill:none;"/><g><path d="M300,0l0,300l-270,0c-16.557,0 -30,-13.443 -30,-30l0,-240c0,-16.557 13.443,-30 30,-30l270,0Z" style="fill:#211084;"/><g><path d="M88.872,221.591c20.731,0 39.913,-22.669 39.913,-47.469c0,-23.25 -12.594,-39.719 -30.225,-39.719c-2.131,0 -4.65,0.388 -6.588,0.969c-1.356,0.387 -1.744,-0.969 -0.775,-1.744l4.456,-3.1c17.05,-11.819 24.994,-22.088 24.994,-32.55c0,-11.819 -8.525,-19.569 -21.506,-19.569c-15.113,0 -26.156,10.462 -27.9,26.35c-0.194,2.131 0.775,3.487 2.325,3.487c1.55,0 2.712,-1.162 2.906,-2.906c1.938,-12.594 9.106,-20.344 18.988,-20.344c7.556,0 12.013,5.619 12.013,15.113c0,8.719 -5.038,17.244 -16.275,27.706l-13.95,13.175c-1.744,1.744 -2.325,3.488 -1.55,4.65c0.969,1.162 2.519,0.969 4.65,-0.581c3.681,-2.519 7.944,-3.681 13.175,-3.681c14.144,0 21.313,12.594 21.313,37.394c0,22.475 -10.075,37.587 -24.8,37.587c-14.144,0 -6.781,-15.113 -16.469,-15.113c-4.069,0 -6.975,2.713 -6.975,6.975c0,8.137 8.719,13.369 22.281,13.369Z" style="fill:#ace3fe;fill-rule:nonzero;"/><path d="M218.684,261.503c8.912,0 14.919,-2.519 18.988,-5.619c1.162,-0.969 1.55,-1.744 1.55,-2.713c0,-2.131 -2.131,-2.713 -4.262,-1.356c-4.069,2.519 -7.556,3.681 -11.819,3.681c-8.913,0 -16.469,-6.2 -21.119,-21.312c-1.55,-5.425 -3.875,-8.719 -7.169,-11.044c-1.356,-0.969 -1.356,-2.325 0.194,-2.713c20.925,-5.812 36.425,-34.681 36.425,-70.525c0,-40.106 -19.763,-71.494 -44.563,-71.494c-24.994,0 -44.563,31.388 -44.563,71.494c0,35.069 14.919,63.55 35.263,70.138c6.588,2.713 8.913,5.231 10.269,13.562c3.681,22.087 19.181,27.9 30.806,27.9Zm-31.775,-45.144c-18.213,0 -29.256,-21.7 -29.256,-66.456c0,-44.562 11.044,-66.262 29.256,-66.262c18.213,0 29.256,21.7 29.256,66.262c0,44.756 -11.044,66.456 -29.256,66.456Z" style="fill:#ace3fe;fill-rule:nonzero;"/></g></g><g><path d="M600,30l0,240c0,16.557 -13.443,30 -30,30l-270,-0l0,-300l270,0c16.557,0 30,13.443 30,30Z" style="fill:#112c14;"/><g><path d="M411.928,105.147c0,17.438 -10.075,28.287 -26.738,33.906l0,4.262c19.375,-1.55 32.55,12.787 32.55,35.456c0,22.475 -11.238,37.587 -27.706,37.587c-14.144,0 -9.688,-15.113 -19.375,-15.113c-4.069,0 -6.975,2.713 -6.975,6.975c0,8.137 11.625,13.369 25.575,13.369c25.381,0 42.431,-18.6 42.431,-46.306c0,-19.181 -11.819,-34.1 -29.256,-37.006l0,-0.969c14.725,-6.006 23.444,-16.275 23.444,-31.775c0,-15.306 -8.331,-27.125 -26.156,-27.125c-17.438,0 -31.388,11.625 -33.325,31l5.231,2.131c1.938,-15.887 12.594,-25.381 25.381,-25.381c10.463,0 14.919,9.106 14.919,18.988Z" style="fill:#a6dfae;fill-rule:nonzero;"/><path d="M513.453,253.559c11.044,0 22.475,-5.425 30.613,-14.919l-2.712,-2.519c-8.138,7.556 -17.825,8.525 -26.35,8.525c-17.438,0 -27.125,-4.263 -44.95,-13.756l8.331,-3.681c6.006,-2.519 11.431,-5.037 18.019,-6.394c21.7,-4.844 37.975,-34.488 37.975,-70.913c0,-40.106 -19.763,-71.494 -44.563,-71.494c-24.994,0 -44.563,31.388 -44.563,71.494c0,35.069 15.694,66.65 38.944,71.106l-17.438,7.75c-7.169,-2.906 -15.113,-3.681 -16.663,-0.387c-1.55,3.294 5.231,6.394 15.888,4.262c19.181,10.85 32.55,20.925 47.469,20.925Zm-23.638,-37.2c-18.213,0 -29.256,-21.7 -29.256,-66.456c0,-44.562 11.044,-66.262 29.256,-66.262c18.213,0 29.256,21.7 29.256,66.262c0,44.756 -11.044,66.456 -29.256,66.456Z" style="fill:#a6dfae;fill-rule:nonzero;"/></g></g><path d="M302.25,164.412l0,135.588l-4.5,0l0,-300l4.5,-0l0,134.412l15,15.588l-15,14.412Z" style="fill:#a6dfae;"/></svg>