<?xml version="1.0" encoding="UTF-8" standalone="no"?><!DOCTYPE svg PUBLIC "-//W3C//DTD SVG 1.1//EN" "http://www.w3.org/Graphics/SVG/1.1/DTD/svg11.dtd"><svg width="100%" height="100%" viewBox="0 0 600 300" version="1.1" xmlns="http://www.w3.org/2000/svg" xmlns:xlink="http://www.w3.org/1999/xlink" xml:space="preserve" xmlns:serif="http://www.serif.com/" style="fill-rule:evenodd;clip-rule:evenodd;stroke-linejoin:round;stroke-miterlimit:2;"><rect id="sharp" x="0" y="0" width="600" height="300" style="fill:none;"/><clipPath id="_clip1"><rect id="sharp1" serif:id="sharp" x="0" y="0" width="600" height="300"/></clipPath><g clip-path="url(#_clip1)"><g><path d="M300,0l0,300l-270,0c-16.557,0 -30,-13.443 -30,-30l0,-240c0,-16.557 13.443,-30 30,-30l270,0Z" style="fill:#211084;"/><path d="M80.97,0l52.483,0l48.297,193.8c6.57,27.01 13.14,35.77 32.12,39.42l10.95,2.19c6.57,1.46 10.22,4.38 10.22,9.49c0,5.11 -4.38,7.3 -10.95,7.3l-124.83,0c-6.57,0 -10.22,-2.92 -10.22,-8.03c0,-4.38 3.65,-8.03 12.41,-8.76l13.87,-1.46c16.79,-1.46 20.44,-9.49 15.33,-30.66l-27.74,-113.15c-2.92,-12.41 -10.95,-18.98 -24.09,-18.98l-76.65,0c-0.742,0 -1.465,0.019 -2.17,0.056l0,-21.956l80.28,0c7.3,0 10.95,-5.11 9.49,-12.41l-8.8,-36.85Z" style="fill:#ace3fe;"/></g><g><path d="M300,-0l270,0c16.557,0 30,13.443 30,30l0,240c0,16.557 -13.443,30 -30,30l-270,-0l0,-300Z" style="fill:#112c14;"/><path d="M300,71.16l0,-21.9l92.69,0l-11.753,-49.26l52.363,-0l48.45,193.8c6.57,27.01 13.14,35.77 32.12,39.42l18.25,3.65l0,15.33l-140.16,0l0,-15.33l23.36,-2.92c16.79,-2.19 20.44,-9.49 15.33,-30.66l-32.12,-132.13l-98.53,0Z" style="fill:#a6dfae;"/></g><path d="M302.25,164.412l0,135.588l-4.5,0l0,-300l4.5,0l0,134.412l15,15.588l-15,14.412Z" style="fill:#a6dfae;"/></g></svg>